<mxfile host="Electron" modified="2023-05-13T08:57:35.262Z" agent="Mozilla/5.0 (Windows NT 10.0; Win64; x64) AppleWebKit/537.36 (KHTML, like Gecko) draw.io/21.2.8 Chrome/112.0.5615.165 Electron/24.2.0 Safari/537.36" etag="YlzoDMZa7TIGKHgxiZFV" version="21.2.8" type="device">
  <diagram name="Página-1" id="dhJoWTg4MB5wxoDpjGGh">
    <mxGraphModel dx="1276" dy="605" grid="1" gridSize="10" guides="1" tooltips="1" connect="1" arrows="1" fold="1" page="1" pageScale="1" pageWidth="827" pageHeight="1169" math="0" shadow="0">
      <root>
        <mxCell id="0" />
        <mxCell id="1" parent="0" />
        <mxCell id="_mJZ4wqmGVXa4T_1o8Sn-4" value="" style="endArrow=none;html=1;rounded=0;exitX=1;exitY=0.5;exitDx=0;exitDy=0;" parent="1" source="_mJZ4wqmGVXa4T_1o8Sn-3" target="_mJZ4wqmGVXa4T_1o8Sn-5" edge="1">
          <mxGeometry width="50" height="50" relative="1" as="geometry">
            <mxPoint x="390" y="310" as="sourcePoint" />
            <mxPoint x="510" y="110" as="targetPoint" />
          </mxGeometry>
        </mxCell>
        <mxCell id="_mJZ4wqmGVXa4T_1o8Sn-5" value="CLASES" style="rounded=0;whiteSpace=wrap;html=1;" parent="1" vertex="1">
          <mxGeometry x="730" y="518" width="120" height="60" as="geometry" />
        </mxCell>
        <mxCell id="_mJZ4wqmGVXa4T_1o8Sn-9" value="SOCIOS" style="rounded=0;whiteSpace=wrap;html=1;" parent="1" vertex="1">
          <mxGeometry x="210" y="538" width="120" height="60" as="geometry" />
        </mxCell>
        <mxCell id="_mJZ4wqmGVXa4T_1o8Sn-10" value="0,N" style="text;html=1;align=center;verticalAlign=middle;resizable=0;points=[];autosize=1;strokeColor=none;fillColor=none;" parent="1" vertex="1">
          <mxGeometry x="330" y="555" width="40" height="30" as="geometry" />
        </mxCell>
        <mxCell id="_mJZ4wqmGVXa4T_1o8Sn-12" value="1,N" style="text;html=1;align=center;verticalAlign=middle;resizable=0;points=[];autosize=1;strokeColor=none;fillColor=none;" parent="1" vertex="1">
          <mxGeometry x="690" y="553" width="40" height="30" as="geometry" />
        </mxCell>
        <mxCell id="_mJZ4wqmGVXa4T_1o8Sn-34" value="" style="endArrow=none;html=1;rounded=0;" parent="1" edge="1">
          <mxGeometry width="50" height="50" relative="1" as="geometry">
            <mxPoint x="269.5" y="538" as="sourcePoint" />
            <mxPoint x="270" y="270" as="targetPoint" />
          </mxGeometry>
        </mxCell>
        <mxCell id="_mJZ4wqmGVXa4T_1o8Sn-35" value="" style="endArrow=none;html=1;rounded=0;" parent="1" edge="1">
          <mxGeometry width="50" height="50" relative="1" as="geometry">
            <mxPoint x="230" y="478" as="sourcePoint" />
            <mxPoint x="270" y="478" as="targetPoint" />
          </mxGeometry>
        </mxCell>
        <mxCell id="_mJZ4wqmGVXa4T_1o8Sn-36" value="" style="endArrow=none;html=1;rounded=0;" parent="1" edge="1">
          <mxGeometry width="50" height="50" relative="1" as="geometry">
            <mxPoint x="240" y="430" as="sourcePoint" />
            <mxPoint x="270" y="430" as="targetPoint" />
            <Array as="points" />
          </mxGeometry>
        </mxCell>
        <mxCell id="_mJZ4wqmGVXa4T_1o8Sn-37" value="" style="endArrow=none;html=1;rounded=0;" parent="1" edge="1">
          <mxGeometry width="50" height="50" relative="1" as="geometry">
            <mxPoint x="230" y="310" as="sourcePoint" />
            <mxPoint x="270" y="310" as="targetPoint" />
          </mxGeometry>
        </mxCell>
        <mxCell id="_mJZ4wqmGVXa4T_1o8Sn-38" value="" style="endArrow=none;html=1;rounded=0;" parent="1" edge="1">
          <mxGeometry width="50" height="50" relative="1" as="geometry">
            <mxPoint x="230" y="387.5" as="sourcePoint" />
            <mxPoint x="270" y="387.5" as="targetPoint" />
          </mxGeometry>
        </mxCell>
        <mxCell id="_mJZ4wqmGVXa4T_1o8Sn-39" value="Apellido" style="ellipse;whiteSpace=wrap;html=1;" parent="1" vertex="1">
          <mxGeometry x="80" y="290" width="160" height="36" as="geometry" />
        </mxCell>
        <mxCell id="_mJZ4wqmGVXa4T_1o8Sn-40" value="Contraseña" style="ellipse;whiteSpace=wrap;html=1;" parent="1" vertex="1">
          <mxGeometry x="80" y="370" width="160" height="36" as="geometry" />
        </mxCell>
        <mxCell id="_mJZ4wqmGVXa4T_1o8Sn-41" value="Teléfono" style="ellipse;whiteSpace=wrap;html=1;" parent="1" vertex="1">
          <mxGeometry x="80" y="414" width="160" height="36" as="geometry" />
        </mxCell>
        <mxCell id="_mJZ4wqmGVXa4T_1o8Sn-42" value="Direccion" style="ellipse;whiteSpace=wrap;html=1;" parent="1" vertex="1">
          <mxGeometry x="80" y="460" width="160" height="36" as="geometry" />
        </mxCell>
        <mxCell id="_mJZ4wqmGVXa4T_1o8Sn-43" value="" style="endArrow=none;html=1;rounded=0;" parent="1" target="_mJZ4wqmGVXa4T_1o8Sn-5" edge="1">
          <mxGeometry width="50" height="50" relative="1" as="geometry">
            <mxPoint x="790" y="260" as="sourcePoint" />
            <mxPoint x="820" y="184" as="targetPoint" />
          </mxGeometry>
        </mxCell>
        <mxCell id="_mJZ4wqmGVXa4T_1o8Sn-44" value="" style="endArrow=none;html=1;rounded=0;" parent="1" edge="1">
          <mxGeometry width="50" height="50" relative="1" as="geometry">
            <mxPoint x="787" y="417.5" as="sourcePoint" />
            <mxPoint x="827" y="417.5" as="targetPoint" />
          </mxGeometry>
        </mxCell>
        <mxCell id="_mJZ4wqmGVXa4T_1o8Sn-47" value="Nombre_CLASE" style="ellipse;whiteSpace=wrap;html=1;" parent="1" vertex="1">
          <mxGeometry x="827" y="400" width="160" height="36" as="geometry" />
        </mxCell>
        <mxCell id="_mJZ4wqmGVXa4T_1o8Sn-48" value="Tipo" style="ellipse;whiteSpace=wrap;html=1;" parent="1" vertex="1">
          <mxGeometry x="827" y="350" width="160" height="36" as="geometry" />
        </mxCell>
        <mxCell id="_mJZ4wqmGVXa4T_1o8Sn-54" value="" style="endArrow=none;html=1;rounded=0;exitX=1;exitY=0.25;exitDx=0;exitDy=0;" parent="1" source="_mJZ4wqmGVXa4T_1o8Sn-3" edge="1">
          <mxGeometry width="50" height="50" relative="1" as="geometry">
            <mxPoint x="500" y="420" as="sourcePoint" />
            <mxPoint x="534.9132420091325" y="548.9132420091325" as="targetPoint" />
          </mxGeometry>
        </mxCell>
        <mxCell id="_mJZ4wqmGVXa4T_1o8Sn-57" value="Fecha_hora" style="ellipse;whiteSpace=wrap;html=1;" parent="1" vertex="1">
          <mxGeometry x="827" y="240" width="160" height="36" as="geometry" />
        </mxCell>
        <mxCell id="_mJZ4wqmGVXa4T_1o8Sn-62" value="Monitor" style="ellipse;whiteSpace=wrap;html=1;" parent="1" vertex="1">
          <mxGeometry x="827" y="450" width="160" height="36" as="geometry" />
        </mxCell>
        <mxCell id="_mJZ4wqmGVXa4T_1o8Sn-63" value="" style="endArrow=none;html=1;rounded=0;" parent="1" edge="1">
          <mxGeometry width="50" height="50" relative="1" as="geometry">
            <mxPoint x="787" y="467.5" as="sourcePoint" />
            <mxPoint x="827" y="467.5" as="targetPoint" />
          </mxGeometry>
        </mxCell>
        <mxCell id="_mJZ4wqmGVXa4T_1o8Sn-64" value="N:N" style="text;html=1;align=center;verticalAlign=middle;resizable=0;points=[];autosize=1;strokeColor=none;fillColor=none;" parent="1" vertex="1">
          <mxGeometry x="574" y="578" width="40" height="30" as="geometry" />
        </mxCell>
        <mxCell id="_mJZ4wqmGVXa4T_1o8Sn-65" value="" style="endArrow=none;html=1;rounded=0;" parent="1" edge="1">
          <mxGeometry width="50" height="50" relative="1" as="geometry">
            <mxPoint x="240" y="346" as="sourcePoint" />
            <mxPoint x="270" y="346.5" as="targetPoint" />
          </mxGeometry>
        </mxCell>
        <mxCell id="_mJZ4wqmGVXa4T_1o8Sn-66" value="DNI" style="ellipse;whiteSpace=wrap;html=1;" parent="1" vertex="1">
          <mxGeometry x="80" y="326" width="160" height="36" as="geometry" />
        </mxCell>
        <mxCell id="_mJZ4wqmGVXa4T_1o8Sn-67" value="" style="endArrow=none;html=1;rounded=0;" parent="1" edge="1">
          <mxGeometry width="50" height="50" relative="1" as="geometry">
            <mxPoint x="790" y="370" as="sourcePoint" />
            <mxPoint x="830" y="370" as="targetPoint" />
          </mxGeometry>
        </mxCell>
        <mxCell id="_mJZ4wqmGVXa4T_1o8Sn-68" value="Aula" style="ellipse;whiteSpace=wrap;html=1;" parent="1" vertex="1">
          <mxGeometry x="827" y="300" width="160" height="36" as="geometry" />
        </mxCell>
        <mxCell id="_mJZ4wqmGVXa4T_1o8Sn-69" value="" style="endArrow=none;html=1;rounded=0;" parent="1" edge="1">
          <mxGeometry width="50" height="50" relative="1" as="geometry">
            <mxPoint x="790" y="320" as="sourcePoint" />
            <mxPoint x="830" y="320" as="targetPoint" />
          </mxGeometry>
        </mxCell>
        <mxCell id="_mJZ4wqmGVXa4T_1o8Sn-70" value="" style="endArrow=none;html=1;rounded=0;" parent="1" edge="1">
          <mxGeometry width="50" height="50" relative="1" as="geometry">
            <mxPoint x="790" y="260" as="sourcePoint" />
            <mxPoint x="830" y="260" as="targetPoint" />
          </mxGeometry>
        </mxCell>
        <mxCell id="_mJZ4wqmGVXa4T_1o8Sn-76" value="" style="endArrow=none;html=1;rounded=0;exitX=1;exitY=0.25;exitDx=0;exitDy=0;" parent="1" source="_mJZ4wqmGVXa4T_1o8Sn-9" target="_mJZ4wqmGVXa4T_1o8Sn-3" edge="1">
          <mxGeometry width="50" height="50" relative="1" as="geometry">
            <mxPoint x="330" y="553" as="sourcePoint" />
            <mxPoint x="534.9132420091325" y="548.9132420091325" as="targetPoint" />
          </mxGeometry>
        </mxCell>
        <mxCell id="_mJZ4wqmGVXa4T_1o8Sn-3" value="apuntan" style="rhombus;whiteSpace=wrap;html=1;" parent="1" vertex="1">
          <mxGeometry x="494" y="508" width="80" height="80" as="geometry" />
        </mxCell>
        <mxCell id="yW-DzzcqtFnqFuDRM7yB-1" value="" style="endArrow=none;html=1;rounded=0;exitX=1;exitY=0.5;exitDx=0;exitDy=0;" parent="1" source="yW-DzzcqtFnqFuDRM7yB-31" target="yW-DzzcqtFnqFuDRM7yB-2" edge="1">
          <mxGeometry width="50" height="50" relative="1" as="geometry">
            <mxPoint x="390.5" y="730" as="sourcePoint" />
            <mxPoint x="510.5" y="530" as="targetPoint" />
          </mxGeometry>
        </mxCell>
        <mxCell id="yW-DzzcqtFnqFuDRM7yB-2" value="CLASSES" style="rounded=0;whiteSpace=wrap;html=1;" parent="1" vertex="1">
          <mxGeometry x="730.5" y="938" width="120" height="60" as="geometry" />
        </mxCell>
        <mxCell id="yW-DzzcqtFnqFuDRM7yB-3" value="MEMBERS" style="rounded=0;whiteSpace=wrap;html=1;" parent="1" vertex="1">
          <mxGeometry x="210.5" y="958" width="120" height="60" as="geometry" />
        </mxCell>
        <mxCell id="yW-DzzcqtFnqFuDRM7yB-4" value="0,N" style="text;html=1;align=center;verticalAlign=middle;resizable=0;points=[];autosize=1;strokeColor=none;fillColor=none;" parent="1" vertex="1">
          <mxGeometry x="330.5" y="975" width="40" height="30" as="geometry" />
        </mxCell>
        <mxCell id="yW-DzzcqtFnqFuDRM7yB-5" value="1,N" style="text;html=1;align=center;verticalAlign=middle;resizable=0;points=[];autosize=1;strokeColor=none;fillColor=none;" parent="1" vertex="1">
          <mxGeometry x="690.5" y="973" width="40" height="30" as="geometry" />
        </mxCell>
        <mxCell id="yW-DzzcqtFnqFuDRM7yB-6" value="" style="endArrow=none;html=1;rounded=0;exitX=0.5;exitY=0;exitDx=0;exitDy=0;" parent="1" source="yW-DzzcqtFnqFuDRM7yB-3" edge="1">
          <mxGeometry width="50" height="50" relative="1" as="geometry">
            <mxPoint x="269.5" y="928" as="sourcePoint" />
            <mxPoint x="270" y="730" as="targetPoint" />
          </mxGeometry>
        </mxCell>
        <mxCell id="yW-DzzcqtFnqFuDRM7yB-7" value="" style="endArrow=none;html=1;rounded=0;" parent="1" edge="1">
          <mxGeometry width="50" height="50" relative="1" as="geometry">
            <mxPoint x="230" y="885" as="sourcePoint" />
            <mxPoint x="270" y="885" as="targetPoint" />
          </mxGeometry>
        </mxCell>
        <mxCell id="yW-DzzcqtFnqFuDRM7yB-8" value="" style="endArrow=none;html=1;rounded=0;" parent="1" edge="1">
          <mxGeometry width="50" height="50" relative="1" as="geometry">
            <mxPoint x="230" y="849" as="sourcePoint" />
            <mxPoint x="270" y="849" as="targetPoint" />
          </mxGeometry>
        </mxCell>
        <mxCell id="yW-DzzcqtFnqFuDRM7yB-9" value="" style="endArrow=none;html=1;rounded=0;" parent="1" edge="1">
          <mxGeometry width="50" height="50" relative="1" as="geometry">
            <mxPoint x="230" y="730" as="sourcePoint" />
            <mxPoint x="270" y="730" as="targetPoint" />
          </mxGeometry>
        </mxCell>
        <mxCell id="yW-DzzcqtFnqFuDRM7yB-10" value="" style="endArrow=none;html=1;rounded=0;" parent="1" edge="1">
          <mxGeometry width="50" height="50" relative="1" as="geometry">
            <mxPoint x="230" y="807.5" as="sourcePoint" />
            <mxPoint x="270" y="807.5" as="targetPoint" />
          </mxGeometry>
        </mxCell>
        <mxCell id="yW-DzzcqtFnqFuDRM7yB-11" value="Last_Name" style="ellipse;whiteSpace=wrap;html=1;" parent="1" vertex="1">
          <mxGeometry x="80" y="710" width="160" height="36" as="geometry" />
        </mxCell>
        <mxCell id="yW-DzzcqtFnqFuDRM7yB-12" value="Password" style="ellipse;whiteSpace=wrap;html=1;" parent="1" vertex="1">
          <mxGeometry x="80" y="790" width="160" height="36" as="geometry" />
        </mxCell>
        <mxCell id="yW-DzzcqtFnqFuDRM7yB-13" value="Phone_Number" style="ellipse;whiteSpace=wrap;html=1;" parent="1" vertex="1">
          <mxGeometry x="80" y="826" width="160" height="36" as="geometry" />
        </mxCell>
        <mxCell id="yW-DzzcqtFnqFuDRM7yB-14" value="Address" style="ellipse;whiteSpace=wrap;html=1;" parent="1" vertex="1">
          <mxGeometry x="80" y="862" width="160" height="36" as="geometry" />
        </mxCell>
        <mxCell id="yW-DzzcqtFnqFuDRM7yB-15" value="" style="endArrow=none;html=1;rounded=0;" parent="1" target="yW-DzzcqtFnqFuDRM7yB-2" edge="1">
          <mxGeometry width="50" height="50" relative="1" as="geometry">
            <mxPoint x="790.5" y="680" as="sourcePoint" />
            <mxPoint x="820.5" y="604" as="targetPoint" />
          </mxGeometry>
        </mxCell>
        <mxCell id="yW-DzzcqtFnqFuDRM7yB-16" value="" style="endArrow=none;html=1;rounded=0;" parent="1" edge="1">
          <mxGeometry width="50" height="50" relative="1" as="geometry">
            <mxPoint x="787.5" y="837.5" as="sourcePoint" />
            <mxPoint x="827.5" y="837.5" as="targetPoint" />
          </mxGeometry>
        </mxCell>
        <mxCell id="yW-DzzcqtFnqFuDRM7yB-17" value="Class_name" style="ellipse;whiteSpace=wrap;html=1;" parent="1" vertex="1">
          <mxGeometry x="827.5" y="820" width="160" height="36" as="geometry" />
        </mxCell>
        <mxCell id="yW-DzzcqtFnqFuDRM7yB-18" value="Exercise_type" style="ellipse;whiteSpace=wrap;html=1;" parent="1" vertex="1">
          <mxGeometry x="827.5" y="770" width="160" height="36" as="geometry" />
        </mxCell>
        <mxCell id="yW-DzzcqtFnqFuDRM7yB-19" value="" style="endArrow=none;html=1;rounded=0;exitX=1;exitY=0.25;exitDx=0;exitDy=0;" parent="1" source="yW-DzzcqtFnqFuDRM7yB-31" edge="1">
          <mxGeometry width="50" height="50" relative="1" as="geometry">
            <mxPoint x="500.5" y="840" as="sourcePoint" />
            <mxPoint x="535.4132420091325" y="968.9132420091325" as="targetPoint" />
          </mxGeometry>
        </mxCell>
        <mxCell id="yW-DzzcqtFnqFuDRM7yB-20" value="Date_time" style="ellipse;whiteSpace=wrap;html=1;" parent="1" vertex="1">
          <mxGeometry x="827.5" y="660" width="160" height="36" as="geometry" />
        </mxCell>
        <mxCell id="yW-DzzcqtFnqFuDRM7yB-21" value="Instructor" style="ellipse;whiteSpace=wrap;html=1;" parent="1" vertex="1">
          <mxGeometry x="827.5" y="870" width="160" height="36" as="geometry" />
        </mxCell>
        <mxCell id="yW-DzzcqtFnqFuDRM7yB-22" value="" style="endArrow=none;html=1;rounded=0;" parent="1" edge="1">
          <mxGeometry width="50" height="50" relative="1" as="geometry">
            <mxPoint x="787.5" y="887.5" as="sourcePoint" />
            <mxPoint x="827.5" y="887.5" as="targetPoint" />
          </mxGeometry>
        </mxCell>
        <mxCell id="yW-DzzcqtFnqFuDRM7yB-23" value="N:N" style="text;html=1;align=center;verticalAlign=middle;resizable=0;points=[];autosize=1;strokeColor=none;fillColor=none;" parent="1" vertex="1">
          <mxGeometry x="574.5" y="998" width="40" height="30" as="geometry" />
        </mxCell>
        <mxCell id="yW-DzzcqtFnqFuDRM7yB-24" value="" style="endArrow=none;html=1;rounded=0;" parent="1" edge="1">
          <mxGeometry width="50" height="50" relative="1" as="geometry">
            <mxPoint x="240" y="766" as="sourcePoint" />
            <mxPoint x="270" y="766.5" as="targetPoint" />
          </mxGeometry>
        </mxCell>
        <mxCell id="yW-DzzcqtFnqFuDRM7yB-25" value="ID_Number" style="ellipse;whiteSpace=wrap;html=1;" parent="1" vertex="1">
          <mxGeometry x="80" y="746" width="160" height="36" as="geometry" />
        </mxCell>
        <mxCell id="yW-DzzcqtFnqFuDRM7yB-26" value="" style="endArrow=none;html=1;rounded=0;" parent="1" edge="1">
          <mxGeometry width="50" height="50" relative="1" as="geometry">
            <mxPoint x="790.5" y="790" as="sourcePoint" />
            <mxPoint x="830.5" y="790" as="targetPoint" />
          </mxGeometry>
        </mxCell>
        <mxCell id="yW-DzzcqtFnqFuDRM7yB-27" value="Classroom" style="ellipse;whiteSpace=wrap;html=1;" parent="1" vertex="1">
          <mxGeometry x="827.5" y="720" width="160" height="36" as="geometry" />
        </mxCell>
        <mxCell id="yW-DzzcqtFnqFuDRM7yB-28" value="" style="endArrow=none;html=1;rounded=0;" parent="1" edge="1">
          <mxGeometry width="50" height="50" relative="1" as="geometry">
            <mxPoint x="790.5" y="740" as="sourcePoint" />
            <mxPoint x="830.5" y="740" as="targetPoint" />
          </mxGeometry>
        </mxCell>
        <mxCell id="yW-DzzcqtFnqFuDRM7yB-29" value="" style="endArrow=none;html=1;rounded=0;" parent="1" edge="1">
          <mxGeometry width="50" height="50" relative="1" as="geometry">
            <mxPoint x="790.5" y="680" as="sourcePoint" />
            <mxPoint x="830.5" y="680" as="targetPoint" />
          </mxGeometry>
        </mxCell>
        <mxCell id="yW-DzzcqtFnqFuDRM7yB-30" value="" style="endArrow=none;html=1;rounded=0;exitX=1;exitY=0.25;exitDx=0;exitDy=0;" parent="1" source="yW-DzzcqtFnqFuDRM7yB-3" target="yW-DzzcqtFnqFuDRM7yB-31" edge="1">
          <mxGeometry width="50" height="50" relative="1" as="geometry">
            <mxPoint x="330.5" y="973" as="sourcePoint" />
            <mxPoint x="535.4132420091325" y="968.9132420091325" as="targetPoint" />
          </mxGeometry>
        </mxCell>
        <mxCell id="yW-DzzcqtFnqFuDRM7yB-31" value="Reserve" style="rhombus;whiteSpace=wrap;html=1;" parent="1" vertex="1">
          <mxGeometry x="494.5" y="928" width="80" height="80" as="geometry" />
        </mxCell>
        <mxCell id="yW-DzzcqtFnqFuDRM7yB-32" value="Email_Address" style="ellipse;whiteSpace=wrap;html=1;" parent="1" vertex="1">
          <mxGeometry x="80" y="902" width="160" height="36" as="geometry" />
        </mxCell>
        <mxCell id="yW-DzzcqtFnqFuDRM7yB-33" value="" style="endArrow=none;html=1;rounded=0;" parent="1" edge="1">
          <mxGeometry width="50" height="50" relative="1" as="geometry">
            <mxPoint x="240" y="920" as="sourcePoint" />
            <mxPoint x="270" y="920" as="targetPoint" />
          </mxGeometry>
        </mxCell>
        <mxCell id="yW-DzzcqtFnqFuDRM7yB-34" value="Email" style="ellipse;whiteSpace=wrap;html=1;" parent="1" vertex="1">
          <mxGeometry x="80" y="500" width="160" height="36" as="geometry" />
        </mxCell>
        <mxCell id="yW-DzzcqtFnqFuDRM7yB-35" value="" style="endArrow=none;html=1;rounded=0;" parent="1" edge="1">
          <mxGeometry width="50" height="50" relative="1" as="geometry">
            <mxPoint x="240" y="520" as="sourcePoint" />
            <mxPoint x="270" y="520" as="targetPoint" />
          </mxGeometry>
        </mxCell>
        <mxCell id="ZsHx0HzJPnFnfQZf-f3O-1" value="" style="endArrow=none;html=1;rounded=0;" edge="1" parent="1">
          <mxGeometry width="50" height="50" relative="1" as="geometry">
            <mxPoint x="270" y="730" as="sourcePoint" />
            <mxPoint x="270" y="690" as="targetPoint" />
          </mxGeometry>
        </mxCell>
        <mxCell id="ZsHx0HzJPnFnfQZf-f3O-2" value="" style="endArrow=none;html=1;rounded=0;" edge="1" parent="1">
          <mxGeometry width="50" height="50" relative="1" as="geometry">
            <mxPoint x="270" y="687.5" as="sourcePoint" />
            <mxPoint x="240" y="687.5" as="targetPoint" />
          </mxGeometry>
        </mxCell>
        <mxCell id="ZsHx0HzJPnFnfQZf-f3O-3" value="Fiirst_Name" style="ellipse;whiteSpace=wrap;html=1;" vertex="1" parent="1">
          <mxGeometry x="80" y="670" width="160" height="36" as="geometry" />
        </mxCell>
        <mxCell id="ZsHx0HzJPnFnfQZf-f3O-4" value="Nombre" style="ellipse;whiteSpace=wrap;html=1;" vertex="1" parent="1">
          <mxGeometry x="80" y="250" width="160" height="36" as="geometry" />
        </mxCell>
        <mxCell id="ZsHx0HzJPnFnfQZf-f3O-5" value="" style="endArrow=none;html=1;rounded=0;" edge="1" parent="1">
          <mxGeometry width="50" height="50" relative="1" as="geometry">
            <mxPoint x="240" y="267.5" as="sourcePoint" />
            <mxPoint x="270" y="268" as="targetPoint" />
          </mxGeometry>
        </mxCell>
      </root>
    </mxGraphModel>
  </diagram>
</mxfile>
